<svg width="3373" height="1598" xmlns="http://www.w3.org/2000/svg" xmlns:xlink="http://www.w3.org/1999/xlink" overflow="hidden"><defs><clipPath id="clip0"><rect x="736" y="364" width="3373" height="1598"/></clipPath></defs><g clip-path="url(#clip0)" transform="translate(-736 -364)"><path d="M738.5 491.5C738.5 484.32 744.32 478.5 751.5 478.5 758.68 478.5 764.5 484.32 764.5 491.5 764.5 498.68 758.68 504.5 751.5 504.5 744.32 504.5 738.5 498.68 738.5 491.5Z" stroke="#AA3516" stroke-width="4.58333" stroke-miterlimit="8" fill="#E84C22" fill-rule="evenodd"/><path d="M957.5 679.5C957.5 672.32 963.32 666.5 970.5 666.5 977.68 666.5 983.5 672.32 983.5 679.5 983.5 686.68 977.68 692.5 970.5 692.5 963.32 692.5 957.5 686.68 957.5 679.5Z" stroke="#AA3516" stroke-width="4.58333" stroke-miterlimit="8" fill="#E84C22" fill-rule="evenodd"/><path d="M796.5 959.5C796.5 952.32 802.32 946.5 809.5 946.5 816.68 946.5 822.5 952.32 822.5 959.5 822.5 966.68 816.68 972.5 809.5 972.5 802.32 972.5 796.5 966.68 796.5 959.5Z" stroke="#AA3516" stroke-width="4.58333" stroke-miterlimit="8" fill="#E84C22" fill-rule="evenodd"/><path d="M1149.5 379.5C1149.5 372.32 1155.32 366.5 1162.5 366.5 1169.68 366.5 1175.5 372.32 1175.5 379.5 1175.5 386.68 1169.68 392.5 1162.5 392.5 1155.32 392.5 1149.5 386.68 1149.5 379.5Z" stroke="#AA3516" stroke-width="4.58333" stroke-miterlimit="8" fill="#E84C22" fill-rule="evenodd"/><path d="M1306.5 584.5C1306.5 577.32 1312.32 571.5 1319.5 571.5 1326.68 571.5 1332.5 577.32 1332.5 584.5 1332.5 591.68 1326.68 597.5 1319.5 597.5 1312.32 597.5 1306.5 591.68 1306.5 584.5Z" stroke="#AA3516" stroke-width="4.58333" stroke-miterlimit="8" fill="#E84C22" fill-rule="evenodd"/><path d="M1286.5 1206.5C1286.5 1199.32 1292.32 1193.5 1299.5 1193.5 1306.68 1193.5 1312.5 1199.32 1312.5 1206.5 1312.5 1213.68 1306.68 1219.5 1299.5 1219.5 1292.32 1219.5 1286.5 1213.68 1286.5 1206.5Z" stroke="#AA3516" stroke-width="4.58333" stroke-miterlimit="8" fill="#E84C22" fill-rule="evenodd"/><path d="M1816.5 764.5C1816.5 757.32 1822.32 751.5 1829.5 751.5 1836.68 751.5 1842.5 757.32 1842.5 764.5 1842.5 771.68 1836.68 777.5 1829.5 777.5 1822.32 777.5 1816.5 771.68 1816.5 764.5Z" stroke="#AA3516" stroke-width="4.58333" stroke-miterlimit="8" fill="#E84C22" fill-rule="evenodd"/><path d="M2638.5 557.5C2638.5 550.32 2644.32 544.5 2651.5 544.5 2658.68 544.5 2664.5 550.32 2664.5 557.5 2664.5 564.68 2658.68 570.5 2651.5 570.5 2644.32 570.5 2638.5 564.68 2638.5 557.5Z" stroke="#AA3516" stroke-width="4.58333" stroke-miterlimit="8" fill="#E84C22" fill-rule="evenodd"/><path d="M1996.5 764.5C1996.5 757.32 2002.32 751.5 2009.5 751.5 2016.68 751.5 2022.5 757.32 2022.5 764.5 2022.5 771.68 2016.68 777.5 2009.5 777.5 2002.32 777.5 1996.5 771.68 1996.5 764.5Z" stroke="#AA3516" stroke-width="4.58333" stroke-miterlimit="8" fill="#E84C22" fill-rule="evenodd"/><path d="M1835.5 1044.5C1835.5 1037.32 1841.32 1031.5 1848.5 1031.5 1855.68 1031.5 1861.5 1037.32 1861.5 1044.5 1861.5 1051.68 1855.68 1057.5 1848.5 1057.5 1841.32 1057.5 1835.5 1051.68 1835.5 1044.5Z" stroke="#AA3516" stroke-width="4.58333" stroke-miterlimit="8" fill="#E84C22" fill-rule="evenodd"/><path d="M2188.5 464.5C2188.5 457.32 2194.32 451.5 2201.5 451.5 2208.68 451.5 2214.5 457.32 2214.5 464.5 2214.5 471.68 2208.68 477.5 2201.5 477.5 2194.32 477.5 2188.5 471.68 2188.5 464.5Z" stroke="#AA3516" stroke-width="4.58333" stroke-miterlimit="8" fill="#E84C22" fill-rule="evenodd"/><path d="M2344.5 669.5C2344.5 662.32 2350.32 656.5 2357.5 656.5 2364.68 656.5 2370.5 662.32 2370.5 669.5 2370.5 676.68 2364.68 682.5 2357.5 682.5 2350.32 682.5 2344.5 676.68 2344.5 669.5Z" stroke="#AA3516" stroke-width="4.58333" stroke-miterlimit="8" fill="#E84C22" fill-rule="evenodd"/><path d="M2325.5 1290.5C2325.5 1283.32 2331.32 1277.5 2338.5 1277.5 2345.68 1277.5 2351.5 1283.32 2351.5 1290.5 2351.5 1297.68 2345.68 1303.5 2338.5 1303.5 2331.32 1303.5 2325.5 1297.68 2325.5 1290.5Z" stroke="#AA3516" stroke-width="4.58333" stroke-miterlimit="8" fill="#E84C22" fill-rule="evenodd"/><path d="M2485.5 1118.5C2485.5 1111.32 2491.32 1105.5 2498.5 1105.5 2505.68 1105.5 2511.5 1111.32 2511.5 1118.5 2511.5 1125.68 2505.68 1131.5 2498.5 1131.5 2491.32 1131.5 2485.5 1125.68 2485.5 1118.5Z" stroke="#AA3516" stroke-width="4.58333" stroke-miterlimit="8" fill="#E84C22" fill-rule="evenodd"/><path d="M1033.5 1900.5C1033.5 1893.32 1039.32 1887.5 1046.5 1887.5 1053.68 1887.5 1059.5 1893.32 1059.5 1900.5 1059.5 1907.68 1053.68 1913.5 1046.5 1913.5 1039.32 1913.5 1033.5 1907.68 1033.5 1900.5Z" stroke="#AA3516" stroke-width="4.58333" stroke-miterlimit="8" fill="#E84C22" fill-rule="evenodd"/><path d="M1408.5 1463.5C1408.5 1456.32 1414.32 1450.5 1421.5 1450.5 1428.68 1450.5 1434.5 1456.32 1434.5 1463.5 1434.5 1470.68 1428.68 1476.5 1421.5 1476.5 1414.32 1476.5 1408.5 1470.68 1408.5 1463.5Z" stroke="#AA3516" stroke-width="4.58333" stroke-miterlimit="8" fill="#E84C22" fill-rule="evenodd"/><path d="M2624.5 899.5C2624.5 892.32 2630.32 886.5 2637.5 886.5 2644.68 886.5 2650.5 892.32 2650.5 899.5 2650.5 906.68 2644.68 912.5 2637.5 912.5 2630.32 912.5 2624.5 906.68 2624.5 899.5Z" stroke="#AA3516" stroke-width="4.58333" stroke-miterlimit="8" fill="#E84C22" fill-rule="evenodd"/><path d="M3286.5 863.5C3286.5 856.32 3292.32 850.5 3299.5 850.5 3306.68 850.5 3312.5 856.32 3312.5 863.5 3312.5 870.68 3306.68 876.5 3299.5 876.5 3292.32 876.5 3286.5 870.68 3286.5 863.5Z" stroke="#AA3516" stroke-width="4.58333" stroke-miterlimit="8" fill="#E84C22" fill-rule="evenodd"/><path d="M2643.5 1071.5C2643.5 1064.32 2649.32 1058.5 2656.5 1058.5 2663.68 1058.5 2669.5 1064.32 2669.5 1071.5 2669.5 1078.68 2663.68 1084.5 2656.5 1084.5 2649.32 1084.5 2643.5 1078.68 2643.5 1071.5Z" stroke="#AA3516" stroke-width="4.58333" stroke-miterlimit="8" fill="#E84C22" fill-rule="evenodd"/><path d="M2713.5 1272.5C2713.5 1265.32 2719.32 1259.5 2726.5 1259.5 2733.68 1259.5 2739.5 1265.32 2739.5 1272.5 2739.5 1279.68 2733.68 1285.5 2726.5 1285.5 2719.32 1285.5 2713.5 1279.68 2713.5 1272.5Z" stroke="#AA3516" stroke-width="4.58333" stroke-miterlimit="8" fill="#E84C22" fill-rule="evenodd"/><path d="M3133.5 1425.5C3133.5 1418.32 3139.32 1412.5 3146.5 1412.5 3153.68 1412.5 3159.5 1418.32 3159.5 1425.5 3159.5 1432.68 3153.68 1438.5 3146.5 1438.5 3139.32 1438.5 3133.5 1432.68 3133.5 1425.5Z" stroke="#AA3516" stroke-width="4.58333" stroke-miterlimit="8" fill="#E84C22" fill-rule="evenodd"/><path d="M3534.5 1582.5C3534.5 1575.32 3540.32 1569.5 3547.5 1569.5 3554.68 1569.5 3560.5 1575.32 3560.5 1582.5 3560.5 1589.68 3554.68 1595.5 3547.5 1595.5 3540.32 1595.5 3534.5 1589.68 3534.5 1582.5Z" stroke="#AA3516" stroke-width="4.58333" stroke-miterlimit="8" fill="#E84C22" fill-rule="evenodd"/><path d="M3463.5 968.5C3463.5 961.32 3469.32 955.5 3476.5 955.5 3483.68 955.5 3489.5 961.32 3489.5 968.5 3489.5 975.68 3483.68 981.5 3476.5 981.5 3469.32 981.5 3463.5 975.68 3463.5 968.5Z" stroke="#AA3516" stroke-width="4.58333" stroke-miterlimit="8" fill="#E84C22" fill-rule="evenodd"/><path d="M3992.5 436.5C3992.5 429.32 3998.32 423.5 4005.5 423.5 4012.68 423.5 4018.5 429.32 4018.5 436.5 4018.5 443.68 4012.68 449.5 4005.5 449.5 3998.32 449.5 3992.5 443.68 3992.5 436.5Z" stroke="#AA3516" stroke-width="4.58333" stroke-miterlimit="8" fill="#E84C22" fill-rule="evenodd"/><path d="M4080.5 699.5C4080.5 692.32 4086.32 686.5 4093.5 686.5 4100.68 686.5 4106.5 692.32 4106.5 699.5 4106.5 706.68 4100.68 712.5 4093.5 712.5 4086.32 712.5 4080.5 706.68 4080.5 699.5Z" stroke="#AA3516" stroke-width="4.58333" stroke-miterlimit="8" fill="#E84C22" fill-rule="evenodd"/><path d="M3260.5 1628.5C3260.5 1621.32 3266.32 1615.5 3273.5 1615.5 3280.68 1615.5 3286.5 1621.32 3286.5 1628.5 3286.5 1635.68 3280.68 1641.5 3273.5 1641.5 3266.32 1641.5 3260.5 1635.68 3260.5 1628.5Z" stroke="#AA3516" stroke-width="4.58333" stroke-miterlimit="8" fill="#E84C22" fill-rule="evenodd"/><path d="M3874.5 855.5C3874.5 848.32 3880.32 842.5 3887.5 842.5 3894.68 842.5 3900.5 848.32 3900.5 855.5 3900.5 862.68 3894.68 868.5 3887.5 868.5 3880.32 868.5 3874.5 862.68 3874.5 855.5Z" stroke="#AA3516" stroke-width="4.58333" stroke-miterlimit="8" fill="#E84C22" fill-rule="evenodd"/><path d="M4031.5 1061.5C4031.5 1054.32 4037.32 1048.5 4044.5 1048.5 4051.68 1048.5 4057.5 1054.32 4057.5 1061.5 4057.5 1068.68 4051.68 1074.5 4044.5 1074.5 4037.32 1074.5 4031.5 1068.68 4031.5 1061.5Z" stroke="#AA3516" stroke-width="4.58333" stroke-miterlimit="8" fill="#E84C22" fill-rule="evenodd"/><path d="M3972.5 1494.5C3972.5 1487.32 3978.32 1481.5 3985.5 1481.5 3992.68 1481.5 3998.5 1487.32 3998.5 1494.5 3998.5 1501.68 3992.68 1507.5 3985.5 1507.5 3978.32 1507.5 3972.5 1501.68 3972.5 1494.5Z" stroke="#AA3516" stroke-width="4.58333" stroke-miterlimit="8" fill="#E84C22" fill-rule="evenodd"/><path d="M3638.5 1774.5C3638.5 1767.32 3644.32 1761.5 3651.5 1761.5 3658.68 1761.5 3664.5 1767.32 3664.5 1774.5 3664.5 1781.68 3658.68 1787.5 3651.5 1787.5 3644.32 1787.5 3638.5 1781.68 3638.5 1774.5Z" stroke="#AA3516" stroke-width="4.58333" stroke-miterlimit="8" fill="#E84C22" fill-rule="evenodd"/><path d="M3522.5 1373.5C3522.5 1366.32 3528.32 1360.5 3535.5 1360.5 3542.68 1360.5 3548.5 1366.32 3548.5 1373.5 3548.5 1380.68 3542.68 1386.5 3535.5 1386.5 3528.32 1386.5 3522.5 1380.68 3522.5 1373.5Z" stroke="#AA3516" stroke-width="4.58333" stroke-miterlimit="8" fill="#E84C22" fill-rule="evenodd"/><path d="M2273.5 1836.5C2273.5 1829.32 2279.32 1823.5 2286.5 1823.5 2293.68 1823.5 2299.5 1829.32 2299.5 1836.5 2299.5 1843.68 2293.68 1849.5 2286.5 1849.5 2279.32 1849.5 2273.5 1843.68 2273.5 1836.5Z" stroke="#AA3516" stroke-width="4.58333" stroke-miterlimit="8" fill="#E84C22" fill-rule="evenodd"/><path d="M3226.5 1947C3226.5 1940.1 3232.32 1934.5 3239.5 1934.5 3246.68 1934.5 3252.5 1940.1 3252.5 1947 3252.5 1953.9 3246.68 1959.5 3239.5 1959.5 3232.32 1959.5 3226.5 1953.9 3226.5 1947Z" stroke="#AA3516" stroke-width="4.58333" stroke-miterlimit="8" fill="#E84C22" fill-rule="evenodd"/><path d="M2685.5 1905.5C2685.5 1898.32 2691.32 1892.5 2698.5 1892.5 2705.68 1892.5 2711.5 1898.32 2711.5 1905.5 2711.5 1912.68 2705.68 1918.5 2698.5 1918.5 2691.32 1918.5 2685.5 1912.68 2685.5 1905.5Z" stroke="#AA3516" stroke-width="4.58333" stroke-miterlimit="8" fill="#E84C22" fill-rule="evenodd"/><path d="M2249.5 1487.5C2249.5 1480.32 2255.32 1474.5 2262.5 1474.5 2269.68 1474.5 2275.5 1480.32 2275.5 1487.5 2275.5 1494.68 2269.68 1500.5 2262.5 1500.5 2255.32 1500.5 2249.5 1494.68 2249.5 1487.5Z" stroke="#AA3516" stroke-width="4.58333" stroke-miterlimit="8" fill="#E84C22" fill-rule="evenodd"/><path d="M2928.5 381.5C2928.5 374.32 2934.32 368.5 2941.5 368.5 2948.68 368.5 2954.5 374.32 2954.5 381.5 2954.5 388.68 2948.68 394.5 2941.5 394.5 2934.32 394.5 2928.5 388.68 2928.5 381.5Z" stroke="#AA3516" stroke-width="4.58333" stroke-miterlimit="8" fill="#E84C22" fill-rule="evenodd"/><path d="M3128.5 397.5C3128.5 390.32 3134.32 384.5 3141.5 384.5 3148.68 384.5 3154.5 390.32 3154.5 397.5 3154.5 404.68 3148.68 410.5 3141.5 410.5 3134.32 410.5 3128.5 404.68 3128.5 397.5Z" stroke="#AA3516" stroke-width="4.58333" stroke-miterlimit="8" fill="#E84C22" fill-rule="evenodd"/><path d="M1784.5 1856.5C1784.5 1849.32 1790.32 1843.5 1797.5 1843.5 1804.68 1843.5 1810.5 1849.32 1810.5 1856.5 1810.5 1863.68 1804.68 1869.5 1797.5 1869.5 1790.32 1869.5 1784.5 1863.68 1784.5 1856.5Z" stroke="#AA3516" stroke-width="4.58333" stroke-miterlimit="8" fill="#E84C22" fill-rule="evenodd"/><path d="M3475.5 477.5C3475.5 470.32 3481.32 464.5 3488.5 464.5 3495.68 464.5 3501.5 470.32 3501.5 477.5 3501.5 484.68 3495.68 490.5 3488.5 490.5 3481.32 490.5 3475.5 484.68 3475.5 477.5Z" stroke="#AA3516" stroke-width="4.58333" stroke-miterlimit="8" fill="#E84C22" fill-rule="evenodd"/><path d="M3647.5 673.5C3647.5 666.32 3653.32 660.5 3660.5 660.5 3667.68 660.5 3673.5 666.32 3673.5 673.5 3673.5 680.68 3667.68 686.5 3660.5 686.5 3653.32 686.5 3647.5 680.68 3647.5 673.5Z" stroke="#AA3516" stroke-width="4.58333" stroke-miterlimit="8" fill="#E84C22" fill-rule="evenodd"/></g></svg>