<svg width="2544" height="1778" xmlns="http://www.w3.org/2000/svg" xmlns:xlink="http://www.w3.org/1999/xlink" overflow="hidden"><defs><clipPath id="clip0"><rect x="692" y="23" width="2544" height="1778"/></clipPath></defs><g clip-path="url(#clip0)" transform="translate(-692 -23)"><path d="M930 931.5 974.018 847 1077.98 847 1122 931.5 1077.98 1016 974.018 1016Z" fill="#E84C22" fill-rule="evenodd" fill-opacity="0.701961"/><path d="M930 1521.5 974.018 1437 1077.98 1437 1122 1521.5 1077.98 1606 974.018 1606Z" fill="#E84C22" fill-rule="evenodd" fill-opacity="0.701961"/><path d="M1563 1225.5 1607.02 1141 1709.98 1141 1754 1225.5 1709.98 1310 1607.02 1310Z" fill="#E84C22" fill-rule="evenodd" fill-opacity="0.701961"/><path d="M2195 931.5 2239.02 847 2342.98 847 2387 931.5 2342.98 1016 2239.02 1016Z" fill="#E84C22" fill-rule="evenodd" fill-opacity="0.701961"/><path d="M2195 1521.5 2239.02 1437 2342.98 1437 2387 1521.5 2342.98 1606 2239.02 1606Z" fill="#E84C22" fill-rule="evenodd" fill-opacity="0.701961"/><path d="M2828 1225.5 2872.02 1141 2974.98 1141 3019 1225.5 2974.98 1310 2872.02 1310Z" fill="#E84C22" fill-rule="evenodd" fill-opacity="0.701961"/><path d="M1563 606.5 1607.02 522 1709.98 522 1754 606.5 1709.98 691 1607.02 691Z" fill="#E84C22" fill-rule="evenodd" fill-opacity="0.701961"/><path d="M2828 606.5 2872.02 522 2974.98 522 3019 606.5 2974.98 691 2872.02 691Z" fill="#E84C22" fill-rule="evenodd" fill-opacity="0.701961"/><path d="M930 339.5 974.018 255 1077.98 255 1122 339.5 1077.98 424 974.018 424Z" fill="#E84C22" fill-rule="evenodd" fill-opacity="0.701961"/><path d="M2195 339.5 2239.02 255 2342.98 255 2387 339.5 2342.98 424 2239.02 424Z" fill="#E84C22" fill-rule="evenodd" fill-opacity="0.701961"/></g></svg>